/* XPM */
static char *result[] = {
/* columns rows colors chars-per-pixel */
"64 64 73 1 ",
"  c #FDEE26",
". c #F9EB2E",
"X c #FFF023",
"o c #F6E935",
"O c #F8EA32",
"+ c #F1E53E",
"@ c #EADF4E",
"# c #E5DB56",
"$ c #E3DA5B",
"% c #EFE341",
"& c #F1E541",
"* c #DED665",
"= c #DBD36B",
"- c #D6CF73",
"; c #D4CE7B",
": c #D7D174",
"> c #DAD270",
", c #D9D37C",
"< c #E2D963",
"1 c #E2DA6A",
"2 c #BEBDA4",
"3 c #BCBBAD",
"4 c #B5B5B5",
"5 c #B8B8B6",
"6 c #B6B6B9",
"7 c #BBBBBB",
"8 c #C1BFA1",
"9 c #CEC986",
"0 c #CAC68D",
"q c #CCC88E",
"w c #D0CB82",
"e c #DDD781",
"r c #C6C395",
"t c #C9C592",
"y c #C4C199",
"u c #C9C69E",
"i c #D2CE97",
"p c #D9D496",
"a c #C2C0A2",
"s c #CBC8A3",
"d c #C3C2AF",
"f c #CAC8AB",
"g c #C3C2B1",
"h c #C8C7B0",
"j c #C3C3BD",
"k c #D1CEB0",
"l c #BFBFC0",
"z c #BFC0C2",
"x c #C4C4C4",
"c c #C8C8C7",
"v c #CBCBCB",
"b c #D0CFC1",
"n c #D4D3C2",
"m c #D6D6CF",
"M c #DBDACD",
"N c #CFCFD2",
"B c #D4D4D4",
"V c #DBDBD7",
"C c #D5D6D8",
"Z c #DCDCDC",
"A c #E0E0DF",
"S c #DFE0E2",
"D c #E4E4E3",
"F c #E8E8E7",
"G c #E6E6E9",
"H c #ECECEB",
"J c #F0F0EF",
"K c #EEEEF1",
"L c #F4F4F4",
"P c #F6F6F8",
"I c #F7F8F9",
"U c #FFFFFF",
"Y c None",
/* pixels */
"YYYYYYYYYYYYYYYYYYYYYYYYYYYYYYYYYYYYYYYYYYYYYYYYYYYYYYYYYYYYYYYY",
"YYYYYYYYYYYYYYYYYYYYYYYYYYYYYYYYYYYYYYYYYYYYYYYYYYYYYYYYYYYYYYYY",
"YYYYYYYYYYYYYYcvCCvv8YYYYYYYYYYYYYYYYYYYYYYYYYYYYYYYYYYYYYYYYYYY",
"YYYYYYYYYYYYYvLUUUUUPSlYYYYYYYYYYYYYYYYYYYYYYYYYYYYYYYYYYYYYYYYY",
"YYYYYYYYYYYYcIUUUUUUUUFxYYYYYYYYYYYYYYYYYYYYYYYYYYYYYYYYYYYYYYYY",
"YYYYYYYYYYY5ZUUUUUUUUUUZ6YYYYYYYYYYYYYYYYYYYYYYYYYYYYYYYYYYYYYYY",
"YYYYYYYYYYY7LUUUUUUUUUUH7YYYYYYYYYYYYYYYYYYYYYYYYYYYYYYYYYYYYYYY",
"YYYYYYYYYYYvIUUUUUUUUUUH7YYYYYYYYYYYYYYYYYYYYYYYYYYYYYYYYYYYYYYY",
"YYYYYYYYYYYBUUUUUUUUUUUF4YYYYYYYYYYYYYYYYYYYYYYYYYYYYYYYYYYYYYYY",
"Y5vZBxYYYYYVUUUUIIUUUUUCYYYYYYYYYYYYYYYYYYYYYYYYYYYYYYYYYYYYYYYY",
"lDIUULCYYYYDUUUIDUUUUUH7YYYYYYYYYYYYYYYYYYYYYYYYYYYYYYYYYYYYYYYY",
"FUUUUUIZYYYDUUUFFUUUUIvYYYcvBc7YYYYYYYYYYYYYYYYYYYYYYYYYYYYYYYYY",
"UUUUUUUUAYYAUUUVPUUUUV5YBFIUUIA7YYYYYYYYY444YYYYYYYYYYYYYYYYYYYY",
"UUUUUUUUUVYCUUPCUUUUF7cFIUUUUUUCYYYYYY4jvvBBcc74YYYYYYYYYYYYYYYY",
"UUUUUUUUUIvxIUHZUUUH7vLUUUUUUUUJlYYY6vDPIUUUIILZc5YYYYYYYYYYYYYY",
"UUUUUUUIUUH7FUDNIULcvIUUUUUUUUUPxYY7AUUUUUUUUUUUIZxYYYYYYYYYYYYY",
"UUUUUUUPDFIBlnsabCzcIUUUUUUUUUUPxY5ZUUUUUUUUUUUUUUHxYYYYYYYYYYYY",
"UUUUUUUUICvk=&.O+*ycJFAFPUUUUUUL74cIUUUUUUUUUUUUUUUF5YYYYYYYYYYY",
"UUUUUUUUUIj$ XXX XotxZLIUUUUUUUF54VUUUUUUUUUUUUUUUUIcYYYYYYYYYYY",
"AIUUUUUUUIp  XXXXXX-AUUUUUUUUUUv47LUUUUUUUUUUUUUUUUUV4YYYYYYYYYY",
"6vVGHHHHFNq  XXXXX.yZIIUUUUUUUZ54xIUUUUUUUUUUUUUUUUUF4YYYYYYYYYY",
"YYYjcvVACc3@XXXX  <jcNBBVZZVVN5Y4BUUUUUUUUUUUUUUUUUUA4YYYYYYYYYY",
"Y5BHIUUUUHx8%.XX.$MPLLLDv74YYYYY4ZUUUUUUUUUUUUUUUUUUB4YYYYYYYYYY",
"6ZUUUUUUIHHFj0;:95vvlxvALZxYYYYY4FUUUUUUUUUUUUUUUUUIcYYYYYYYYYYY",
"xLUUUUUUUUUUF46YY5lCZZv7cGF7YYYY5HUUUUUUULIUUUUUUUUF5YYYYYYYYYYY",
"7PUUUUUUUUUUP74Y5CPUUUULv7CC6YYY7LUUUUUUHDUUUUUUUUUv4YYYYYYYYYYY",
"YAUUUUUUUUUUPx57DUUUUUUUIDjc5YYYxLUUUUUUBHUUUUUUUUF6YYYYYYYYYYYY",
"YxPUUUUUUUUUHc7ZUUUUUUUUUUHx6YYYxLUUUUUFBUUUUUUUUPxYYYY45xvvv7YY",
"Y4CUUUUUUUUUV6BUUUUUUUUUUUULc7YY7LUUUUUBDUUUUUUUIB4YY4cCFPUUULB4",
"YY5DUUUUUUUIx7LUUUUUUUUUUUUULc4Y5FUUUULcLUUUUUUUV4Y4cDIUUUUUUUUB",
"YYY5ZUUUUUUZ4CUUUUUUUUUUUUUUUH7YYDUUUUFcIUUUUUUD745VIUUUUUUUUUUP",
"YYYY5BLUUUHj4FUUUUUUUUUUUUUUUUD54CUUUUVvUUUUUUH76cFUUUUUUUUUUUUU",
"YYYYYY7BZCx47PUUUUUUUUUUUUUUUUUB4xIUUUvCUUUUUL74vLUUUUUUUUUUUUUU",
"YYYYYYYYYYY4cIUUUUUUUUUUUIUUUUUL84FUUUxNUUUULc4vPUUUUUUUUUUUUUUU",
"YYYYYYYYYYYYcUUUUUUUUUUUUULFHIUUS6cKKC57ZLPFx4vIUUUUUUUUUUUUUUUU",
"YYYYYYYYYYYYjPUUUUUUUUUUUUUPVvAIIc6ae***wug547LUUUUUUUUUUUUUUUUU",
"YYYYYYYYYYYY5HUUUUUUUUUUUUUUUD5xSk#. XXX .+=27JUPFZZFPUUUUUUUUUU",
"YYYYYYYYYYYY4BUUUUUUUUUUUUUUUUD6y+XX  XXXXXX+txvcvDHIUUUUUUUUUUU",
"YYYYYYYYYYYYY5DUUUUUUUUUUUUUUUIh%XXXXXXXXXXXX+2xFUUUUUUUUUUUUUUU",
"YYYYYYYYYYYYYY7DUUUUUUUUUUUUUUIeXXXXXXXXXXXXX tFUUUUUUUUUUUUUUUF",
"YYYYYYYYYYYYYYY5vFIUUUUUUUUUUUZ<XXXXXXX XXXX ofIUUUUUUUUUUUUUUIv",
"YYYYYYYYYYYYYYYY44xvCZFFFFFVCv6=XXXXXXXXXXXXX#7FIUUUUUUUUUUUUUV5",
"YYYYYYYYYYYYYYYYYYYYY557xxcc746y.XXXXXXXXXXX.r45xcmCFGHHHHLHDv6Y",
"YYYYYYYYYYYYYYYYYYYYNZFKPIIILFB5=XXXX XX XX =xxx7444457577574YYY",
"YYYYYYYYYYYYYYYYYYvFIUUUUUUUUUD73$ XXXXXXX 1VPIUIHDv744YYYYYYYYY",
"YYYYYYYYYYYYYYYY5CIUUUUUUUUUUDZFFM,+ XX  +;mUUUUUUUUPDv44YYYYYYY",
"YYYYYYYYYYYYYYYYvUUUUUUUUUUUIUUUUUV30::;id4CUUUUUUUUUUIFx4YYYYYY",
"YYYYYYYYYYYYYYYYVUUUUUUUUUUUUUUUUUPl44xGPLDcHUUUUUUUUUUUHcYYYYYY",
"YYYYYYYYYYYYYYYYCUUUUUUUUUUUUUUUUUUN45FUUUULZUUUUUUUUUUUUHlYYYYY",
"YYYYYYYYYYYYYYYYcIUUUUUUUUUUUUUUUUUv4cUUUUUULPUUUUUUUUUUUUC4YYYY",
"YYYYYYYYYYYYYYYY5FUUUUUUUUUUUUUUUUI7YvIUUUUUUUUUUUUUUUUUUUF5YYYY",
"YYYYYYYYYYYYYYYYYcIUUUUUUUUUUUUUUUH5YxLUUUUUUUUUUUUUUUUUUUH5YYYY",
"YYYYYYYYYYYYYYYYY4ZUUUUUUUUUUUUUUUZ4YYFUUUUUUUUUUUUUUUUUUUD6YYYY",
"YYYYYYYYYYYYYYYYYY7HUUUUUUUUUUUUUUvYYYBUUUUUUUUUUUUUUUUUUUv4YYYY",
"YYYYYYYYYYYYYYYYYYYxLUUUUUUUUUUUUP7YYY7HUUUUUUUUUUUUUUUUUD5YYYYY",
"YYYYYYYYYYYYYYYYYYY4cLUUUUUUUUUUUZ4YYYYvIUUUUUUUUUUUUUUUL74YYYYY",
"YYYYYYYYYYYYYYYYYYYY4xHUUUUUUUUUIxYYYYY5ZUUUUUUUUUUUUUUHx4YYYYYY",
"YYYYYYYYYYYYYYYYYYYYY4jZIUUUUUUUZ5YYYYYY7HUUUUUUUUUUUUFx4YYYYYYY",
"YYYYYYYYYYYYYYYYYYYYYYY4vFIUUUUH7YYYYYYY4xLUUUUUUUUULB5YYYYYYYYY",
"YYYYYYYYYYYYYYYYYYYYYYYYY7vDHHZ7YYYYYYYYY4xHUUUUUIHC74YYYYYYYYYY",
"YYYYYYYYYYYYYYYYYYYYYYYYYYYY754YYYYYYYYYYY45cBZVBc54YYYYYYYYYYYY",
"YYYYYYYYYYYYYYYYYYYYYYYYYYYYYYYYYYYYYYYYYYYYY4444YYYYYYYYYYYYYYY",
"YYYYYYYYYYYYYYYYYYYYYYYYYYYYYYYYYYYYYYYYYYYYYYYYYYYYYYYYYYYYYYYY",
"YYYYYYYYYYYYYYYYYYYYYYYYYYYYYYYYYYYYYYYYYYYYYYYYYYYYYYYYYYYYYYYY"
};
