/* XPM */
static char *result[] = {
/* columns rows colors chars-per-pixel */
"64 64 102 2 ",
"   c #799E11",
".  c #7CA212",
"X  c #7FA91D",
"o  c #84AE04",
"O  c #85AD09",
"+  c #8DAF09",
"@  c #95AD0D",
"#  c #9BAC0F",
"$  c #84B006",
"%  c #86B20B",
"&  c #89B20D",
"*  c #90B00F",
"=  c #80A612",
"-  c #85AC12",
";  c #88AF12",
":  c #87AD1A",
">  c #98AE11",
",  c #87B412",
"<  c #8BB312",
"1  c #8DB916",
"2  c #8CB61A",
"3  c #8FBB19",
"4  c #93B211",
"5  c #9BB015",
"6  c #93B61B",
"7  c #9EB71E",
"8  c #90BD1A",
"9  c #A5A90F",
"0  c #BCA71D",
"q  c #91BA23",
"w  c #94B72B",
"e  c #95BC2B",
"r  c #9ABC2F",
"t  c #97BD32",
"y  c #9CBE34",
"u  c #9DBA3C",
"i  c #BAAC26",
"p  c #BEAE2D",
"a  c #A7B529",
"s  c #A1BD39",
"d  c #C0A41A",
"f  c #D4A224",
"g  c #D3A429",
"h  c #C2AF32",
"j  c #DDAA3B",
"k  c #C1B436",
"l  c #93C11D",
"z  c #96C135",
"x  c #9AC135",
"c  c #9DC23C",
"v  c #A1C13E",
"b  c #AABD60",
"n  c #EDAA47",
"m  c #EDAC4C",
"M  c #F4AB4E",
"N  c #FCAE5B",
"B  c #9DC543",
"V  c #A3C344",
"C  c #A5C64C",
"Z  c #AAC64E",
"A  c #ADC752",
"S  c #A6CA53",
"D  c #A9C955",
"F  c #AACB5A",
"G  c #B2C656",
"H  c #B3CA5D",
"J  c #BBCE6B",
"K  c #B1D066",
"L  c #B0D068",
"P  c #BFCF71",
"I  c #B7D373",
"U  c #B7D578",
"Y  c #BFD47A",
"T  c #C2D16F",
"R  c #C4CF74",
"E  c #C6D079",
"W  c #CED68A",
"Q  c #D3D58B",
"!  c #C7DE95",
"~  c #DED694",
"^  c #D6D894",
"/  c #DBD998",
"(  c #F1C482",
")  c #E4D495",
"_  c #EAD092",
"`  c #E1D49C",
"'  c #ECD79E",
"]  c #E0D99D",
"[  c #F1D39E",
"{  c #DCDFA6",
"}  c #E4D9A7",
"|  c #E8D9A4",
" . c #E4DDA8",
".. c #FFD2A6",
"X. c #EBDFB1",
"o. c #FFDFBF",
"O. c #CCE3A2",
"+. c #E7E6BC",
"@. c #EDE1B8",
"#. c #F3E3C1",
"$. c #F9E4C5",
"%. c #FDE4CA",
/* pixels */
"< < < < < < < < < < O = < < < < < < < < < < < < < ; < < < < < < ; < < < < < < 1 3 < < < < & W #.t O < < < < < < < < < < < < < < ",
"< < < < < < < < < < < < < < < < < < < < < < < & ; . < < < < < < < < < < < < < < & < < < < & q c 1 < < < < < < < < < < < < < < < ",
"< < < < < < < < < < < < < < < < < < < < < < 1 8 < ; < < < < < < < & < 4 < < < < < < < < < < < O < 1 1 < < < < < < < < < < < < < ",
"< < < < < < < < < < < < < < < < < < < < < & 1 1 < < < < < < < < < < < ; < < < < < < < < < < < < < 8 1 ; < < < < < < < < < < < < ",
"< < < < < < 3 < < < < < < < < < < < < < < < , < < < < < < < < < < < - = < < < < < < < < < < < < < < < < < < < < < < < < < < < < ",
"< < < < < < 1 < < < < < < < < ; < < < < < < < < < < < < < < < < < < < ; ; < < < 1 1 < < < < < < < < < < < < < < < < < < < < < < ",
"< < < < < < < < < < < < < < < < < < < < < < < < < < < < < 8 8 < < < < < . < < < < 1 < < < < < < < < < & < 3 , < < < < < < < < < ",
"< < < < < < < < < 4 < < < < < < 1 < < < < < 1 3 < < < < < & % < < < < < ; < < < < < < < < < < < < < < < 1 1 < < < < < ; < < < < ",
"< < < < < < 2 < < O % < < 1 < < 1 1 < < < < < 1 < < < < % s G & < < < < < < < < < < < < < < < < < < ; < < < < < < 1 1 < < < < < ",
"< < < < < 1 8 < O F B O 1 8 < - . < < < < < < < < < < < $ E Q & < < < < < < < < < < < & < < < < < < 4 < < < < < < < < < < < < < ",
"< < ; O < < < < 1 ^ _ I O 1 < < < < < < < < < - ; 1 < < < 2 3 1 < < 6 < < < < < < < < < < 3 1 - < < < < < < < < < < < < < < < < ",
"< < 1 E y O 4 & t X...L O < < < < < < < < < & - ; < < < < & & 8 < < 1 < < < < < & , 3 3 < < 1 < < < < < < < < < < < < < < < < < ",
"< & q Q y % < < o K O.V $ < < < < < < < < < < < < < < < < < < < < < < < < < , 0 j 6 % < < < < < < < < < < < < & 1 1 < < < < < < ",
"< < < % & < < < < O o O < < < < < l < < < < < < < < < < < < < < = - < < < < % h n 4 < < < < < < < < < < < < < < 1 1 < < < < < & ",
"< < < < < < < < < < 4 1 < < < < < < < < < < < < < < < 1 < < < < < - < < < < < 1 * < < < < < < < < < . O < < < < < ; ; < < < < < ",
"< < < < < < < < < < < < < < < < < < < < < < 8 6 ; < < 8 1 < < < < 1 < 1 1 < & 1 1 < < - . < < < < < - ; < < < < < < 1 1 < < < < ",
"1 < < < < < < - < - - < < < < < < < < < < < < < < < 1 < < < < & % < < 8 1 < < < < < < < < < < < < < 1 < < < < < 3 < 1 1 < < < < ",
"1 ; < < < < < = - < , < 3 1 < < < < < < < < < < < <   - < < * d i < < < & < < < < < < < < < < < < < 8 < < < < < 1 < < , < < < 1 ",
"< < < < < < < l < < < < 3 < < < < < < 1 = - < < < ; - < % < & M m & < < < < < < < < < < < < < < < < < < < < < < < 3 < < < < < < ",
"< < < < < < < < < < < < 3 < < < < < < 3 < - - < < < < < q E J a 9 < < < < < < < < < < < < < < < < < < 1 < - < < < 1 < < < < < < ",
"< < < < < < < < < < < < < < < < = < < , < - - < < < < O S [ $.z % < < < < < < < < & 1 1 < < < < < < < 8 ;   < < < < < 1 < < < < ",
"< < < < < < < < < < < < < < < < = ; < < < < < < < < < < o S D < < < < < < < < < < < 6 1 & < < < < ; < < < 4 < < < < < O - < < < ",
"< < < < < < < < < < < < < < < < 1 < < < < < 1 < < < < < = O $ < 1   . < < 1 4 < < 8 & < < < - , < < < < < < < < < < < . = < < < ",
"< < < < < < < < < < < < < < < < < < < 1 < 3 l 1 < < < < - < 4 < < , < < < 1 1 ; < 1 < < < < = . < < < < < < < < < < < < < < < < ",
"< < < 8 1 & < < < < < < < < < < < < 1 3 < < < < < < 8 1 & < < < < < < < < & < < < ; < < < < < 4 1 < < < < < < < < < < < < < < < ",
"< < < < . - < < < < < < < < < < < < < < < < < < < < < < < 1 1 < < < < < < < < < < < < < < < < 8 1 & < < < < < < < < < < < < < < ",
"< < < < - - < < 1 8 < < < < < < < < < < < < & < 1 < < < < 1 < < < < < < < < < < < < < < < < < < < < < < < < < < < < < < ; < < < ",
"< < < < < < < < < 1 & < < < < < < < < < < < < < 8 1 < < < < < . - < < < < < < < < < < < < < < < < < < < < < < < < < < < < < < < ",
"< < < < < < < < < < < < < < < < < ; ; < < < < < < < < < < < < - ; < < < < 6 8 < < < < < < < < < < < < < - < < < < < < 1 1 & < < ",
"< < < < < < < < & @ < < < < < < < = ; < < < < < < < < < < < < < < < < < < & < < < < < < < < & < ; < < <   - < < < < < < 1 < < < ",
"< < < < < < < & g M 7 < < < < < 1 ; < < < < < < ;   ; < < & 8 8 < < < < : 2 < < < < < < < < < < < < < < < < < < < < < < < < < < ",
"< < < < < < < % k j 4 < < < < 1 1 < < < < < < < < - < < < < < < < < < % u } q & < < ; 1 < < < < < < < < < < 1 4 < < < < < < < < ",
"< < < < < < < < 3 O < < < < < < O < < ; < < < < < < < < < < < < < < < & 6 A 2 & < < < 1 1 < < < < < & 3 1 < 1 < 3 < < < < < < < ",
"< < < ; ; < < < 1 < < < < < < O : 1 < < < < < < < < < < < < < < < < < < < O < < 3 8 < < < < < < < < < < % < < < 1 < < < < < < < ",
"< < < - - < < < < < < < < < < ; < 3 < < < < < < < < < < & < < < < < < < < < < < < < < < < < < < < 1 & r T 8 < < < < < < < < < < ",
"< < < < < < < < 1 1 < < < < < < < < < < < < < < < < < < 1 < < < < < < < < < < < < ; < < < < < < & & $ H ] 2 ; < < < < < < 1 3 < ",
"< < < < < < < ; < 1 < < < < < < < < < < < < < < < < < < 8 < < < < < < < < < < < < < < < < . - % V ! o < 2 & < < < < < < < < < < ",
"< < < < < < < < < < < < ; < < < < < < < < < < < < < < < < < < < < < < < < < < < < < < < < ; O z | ( I O < < < < < < < < < < < < ",
"< < < 1 < < < < < < < < < < < < < < < < < < < < < 3 < < < < < < < < < < < < < < < < < < < < & 6 +.@.t & < < < < < < < < < < < < ",
"< < < 8 < < < < < < < < < < < < < < < 1 3 < < < 1 3 < < < < < 8 < < < 1 < < < < < < < < 3 1 & < w C & ,   , < < < < < < < < < < ",
"< < < < O < < < < < . , < < < < < < < < 1 < < < < = ; < < < < 1 ; < < 8 < < < < < < < < 1 6 < < & & 1 < ; < < < < < < < < < < < ",
"< < % q S $ < < < < ; < < < < < < < < < < < < < < < < < < < < < < < < < < < < < < < < < & ; < < < 3 3 < < < < < < < < < < < < < ",
"< & t ) ) e & < < < < < < < < < < < < < < < < < < < < < < < < < < < + < < < < < < < < < < < < < < < & < < < < < < < < < < < < < ",
"< O B %.) V O 1 , < < < < < < 1 - - < < < < 8 1 < < < < < < - = < 1 8 < < < 3 1 < < < < < < < < - < < < < < < < < < < < < < < < ",
"< < < F S o < < < l 1 & < < < < - 2 1 & < < 1 < < < < < < < - ; 8 3 - < < < 3 < ; < < < < < < ; . < < < , < < < < < < < 3 , < < ",
"< 1 1 O % 1 < < < < < < < < < < < < 1 < < < < < < < < & < < < < 1 ; - < < < % X < < < < < < < < < < < < l < < < < < < < < < < < ",
"< < < < < < < < 1 < < < < < < < < < < < < < < < < < < < < < < < < < < < < - T ` u % < < < < < < < < < < 1 < < < < < < < < < < < ",
"< < < < < < < < 8 < < < < < 3 1 ; < < < < < < < < < < < < < < < < < < < < < { ' x % 1 < < < < < < < < < < < < < < < < < < < < < ",
"< < < < < < < < < < < ; < < 1 1 < < < < < < < < < < < < < < < < < < < < < % e e < < < < < < < < < < < < < < < < < =   < < < < < ",
"< < < < < < < < < < < < < < ; < < < < < < < < < < 1 < < < < ; < < < < < < < & % < < < < < < < < < < < < < < < < < < ; < < < < < ",
"< < < < < < < < < < < < < < < < < < < < O < < < < 1 3 < < < < < < < < < < < < < < , 3 1 < < 2 < < < < < < < < < < < & < < < < < ",
"< < < < < < < < < < < < < < < < = < < & 2 < < < < < < < < < < < < < < < < < < < < < 1 < < 1 3 < < < < < < 1 8 1 < < < < < < < < ",
"< < < < < < < < ;   - < < < < < ; < , e ~ V % 1 < < < < < < < < < < < < < < < < < < & < < < < < < < < < < < < < < < < < < < < < ",
"< < < < < < < < < ; & < < < < < < < O x } V O < < < < < < < < < 6 & < < < -   < < < < < < < < < < < < < < < < < < < 1 2 < < < < ",
"< < < < < < < < < 4 < < < < < < < < < & < < . - < < < < < < < 1 3 & % < < < - < < < < < < < < < < < & < < < < < < < 1 1 < < < < ",
"O   < < < < < < < < < < < < < < < < < < < < < < < < < < < < < < 4 f p < < < < < < < < < < < < < < < < < < < 8 < < < < + < < < < ",
"< ; & 1 6 ; < < < < < < < < < < < < < < < < < < < < < < < < < < 4 N j , < < < < 3 ; < < < < < < < < < < < < 2 & O & < < < < < < ",
"< < < 1 < < & 1 3 < < < < < < < < < < < < < < < < < < < 4 < < & < > > , < < < < < . < < < < < < < < < < < < O t Z 2 < < < < < < ",
"< < < < < < < - < < < < < < < < < < < 8 1 & < < < < < , . < < < < < < ; = < < < < < < < < < < < < < < < < 1 o b o.V O < < < < < ",
"< < < < < < < . - < < < < < < < < < 8 < 1 < < < < < < < . < < < < < < < - < < < < < < < < < < < < < < < < < & e Y e & < < < < < ",
"< 1 < < < < < < < < < < < < < < < < 6 < ; < < < < < < < < < < < < < < < < < < < < < < < < < < < < < < < < < < & O O < < < < < < ",
"< 8 - - < < < & < < < < < < < < < < & < < < < < < < < < < < < < < 8 < < < < < < < < < < < < O & < < < < < < < < 6 < < < < < < < ",
"< < . O < < < < < < < < < < < < < < < < < < < < < < < < < < < < 1 1 < < < < < < < < 8 1 < < q 2 < < ; < 1 < < < & < < < < < < < ",
"< < 1 < < < < < < < < < < < < < < < < & < < < < < < < < < < < < < ; < < < < ; 1 3 < < < 1 O T / r & < < 8 < < < < < < < < < < < "
};
