/* XPM */
static char *result[] = {
/* columns rows colors chars-per-pixel */
"64 64 56 1 ",
"  c #FEA727",
". c #FCAC27",
"X c #FCAD28",
"o c #FCB227",
"O c #FCB429",
"+ c #FDBC2B",
"@ c #FDB433",
"# c #FBBC34",
"$ c #F3BD3C",
"% c #FABF3F",
"& c #FEC127",
"* c #FEC12B",
"= c #FCC435",
"- c #FECC36",
"; c #FCC53A",
": c #FDCC39",
"> c #FBD03F",
", c #F7C544",
"< c #F8C542",
"1 c #F7CA45",
"2 c #FCCD42",
"3 c #F7CF48",
"4 c #FACD4B",
"5 c #FCD145",
"6 c #F7D14D",
"7 c #FCD24C",
"8 c #FBCE51",
"9 c #F6D352",
"0 c #FDD454",
"q c #F5D45E",
"w c #FDD65C",
"e c #FFD85F",
"r c #F6D662",
"t c #FCD563",
"y c #F6D860",
"u c #FFD964",
"i c #FBD96C",
"p c #F6CF76",
"a c #FCDA75",
"s c #FADC7B",
"d c #FADC80",
"f c #FCDF88",
"g c #FBE083",
"h c #FAE088",
"j c #FCE79E",
"k c #FCE99E",
"l c #FBE6A5",
"z c #FCE9A4",
"x c #FCECAD",
"c c #FDEEB4",
"v c #FCEEB9",
"b c #FDF1BC",
"n c #FDF3C4",
"m c #FEF3CA",
"M c #FBF6D0",
"N c None",
/* pixels */
"NNNNNNNNNNNNNNNNNNNNNNNNNNNNNNNNNNNNNNNNNNNNNNNNNNNNNNNNNNNNNNNN",
"NNNNNNNNNNNNNNNNNNNNNNNNNNNNNNNNNNNNNNNNNNNNNNNNNNNNNNNNNNNNNNNN",
"NNNNNNNNNNNNNNNNNNNNNNNNNNNNNNNNNNNNNNNNNNNNNNNNNNNNNNNNNNNNNNNN",
"NNNNNNNNNNNNNNNNNNNNNNNNNNNNNNNNNNNNNNNNNNNNNNNNNNNNNNNNNNNNNNNN",
"NNNNNNNNNNNNNNNNNNNNNNNNNNNNNNNNNNNNNNNNNNNNNNNNNNNNNNNNNNNNNNNN",
"NNNNNNNNNNNNNNNNNNNNNNNNNNNNNNNNNNNNNNNNNNNNNNNNNNNNNNNNNNNNNNNN",
"NNNNNNNNNNNNNNNNNNNNNNNNNNNNNNNNNNNNNNNNNNNNNNNNNNNNNNNNNNNNNNNN",
"NNNNNNNNNNNNNNNNNNNNNNNNNNNNNNNNNNNNNNNNNNNNNNNNNNNNNNNNNNNNNNNN",
"NNNNNNNNNNNNNNNNNNNNNNNNNNNNNNNNNNNNNNNNNNNNNNNNNNNNNNNNNNNNNNNN",
"NNNNNNNNNNNNNNNNNNNNNNNNNNNNNNN6096250627NrNNNNNNNNNNNNNNNNNNNNN",
"NNNNNNNNNNNNNNNNNNNNNNNNNNNNNN5>-:-:-655:::6NNNNNNNNNNNNNNNNNNNN",
"NNNNNNNNNNNNNNNNNNNNNNNNNNqq0>---:--:>55::::NNNNNNNNNNNNNNNNNNNN",
"NNNNNNNNNNNNNNNNNNNNNNNN6797075>------255:--:6NNNNNNNNNNNNNNNNNN",
"NNNNNNNNNNNNNNNNNNNNNNN5>-7uuw5-----:-:::-::--2NNNNNNNNNNNNNNNNN",
"NNNNNNNNNNNNNNNNNNNNNN>----5ww>-----=::-------::NNNNNNNNNNNNNNNN",
"NNNNNNNNNNNNNNNNNNNNN<--->-->:--->-==#:-=---:-:-<NNNNNNNNNNNNNNN",
"NNNNNNNNNNNNNNNNNNNN:=---->:--------=##=#=-:-:;#;,NNNNNNNNNNNNNN",
"NNNNNNNNNNNNNNNNNNN;-:--:->7>-:->-----====--#==#=<NNNNNNNNNNNNNN",
"NNNNNNNNNNNNNNNNNN1#=--=--5w7-->5>>-----;=;=##=##=5NNNNNNNNNNNNN",
"NNNNNNNNNNNNNNNNNN:---:----70:505----->--;=##-==-::6NNNNNNNNNNNN",
"NNNNNNNNNNNNNNNNN3---:-=-=-:7>5::-------:::##:-::-:2NNNNNNNNNNNN",
"NNNNNNNNNNNNNNNNN>--:-==#;--75-:::->>---::-=----->>:NNNNNNNNNNNN",
"NNNNNNNNNNNNNNNN8->-:====:---:::::-705>-:::>----:0>:yNNNNNNNNNNN",
"NNNNNNNNNNNNNNNN:----:=====-----::7uue07700075>5e0:-4NNNNNNNNNNN",
"NNNNNNNNNNNNNNN065:-----==-::-:>70uuuuuuuuuuuuee0>--2NNNNNNNNNNN",
"NNNNNNNNNNNNNNN75>------=-:7070euuuuuuuuuuuue072:--:-0NNNNNNNNNN",
"NNNNNNNNNNNNNN475>-:-::-:--0uuewuuuuuuuiuu05:::-::---2NNNNNNNNNN",
"NNNNNNNNNNNNNN;::-----:::--:55::7uuuuue07::-:-----:-->NNNNNNNNNN",
"NNNNNNNNNNNNN<*------:-----------0uuu05----::=#:-====;9NNNNNNNNN",
"NNNNNNNNNNNNN=&--==:--=#=-::---:->0uw>----==##@:-=#@=:NNNNNNNNNN",
"NNNNNNNNNNNNN=++=##::--#@#=--:---->5>---::=@@##---##=-6NNNNNNNNN",
"NNNNNNNNNNNNN=**++#=---=#@@#-------------::=#;:::----:2NNNNNNNNN",
"NNNNNNNNNNNNN=***+=#-----@@@##=:---::--------:-505---::NNNNNNNNN",
"NNNNNNNNNNNNN=***&&*---:-;@@@@@;------>-::----:5w7:-:-:3NNNNNNNN",
"NNNNNNNNNNNNN*****&#=::---==##@@#=--:=--=##=:=-:>------>NNNNNNNN",
"NNNNNNNNNNNN;O*****&;2;*---:-:=@@@@@#@@#@@@@#=---------:NNNNNNNN",
"NNNNNNNNNNNN#oOO****=2:=*------==@@@@@@@###=----------:>NNNNNNNN",
"NNNNNNNNNNNN=+OO+*&**=;+&=**=---:-==##=-------:--==-:---5NNNNNNN",
"NNNNNNNNNNNN#OOo+**************=---:----=----::-=##=:---7NNNNNNN",
"NNNNNNNNNNN;+++++************&*==**--=&+***-----=-=;::::4NNNNNNN",
"NNNNNNNNNNN;+&#&**+*********&**&&*******&**=*---:-===::-5NNNNNNN",
"NNNNNNNNNNN;***&****************&**********&+=*-::--::-:2NNNNNNN",
"NNNNNNNNNNN**********************************;;=2::--:::5NNNNNNN",
"NNNNNNNNNNN=*****&***&******************&****;22;;*---#;NNNNNNNN",
"NNNNNNNNNNN=******++*++****************O+*****==****-=#;NNNNNNNN",
"NNNNNNNNNNN***&&**+O*Oo*++************+XO************OO%NNNNNNNN",
"NNNNNNNNNNN+***&**+.+Xo+oO*&**********+OXO+*******++OOo;NNNNNNNN",
"NNNNNNNNNNN+******O XOoXOO************&+oX+****+++OX.OO=NNNNNNNN",
"NNNNNNNNNNN+&*****+OX++++*&*************+++***oXOOOX o+=NNNNNNNN",
"NNNNNNNNNNN+******&*++**&******&*******&+++**+X XXXXo++;NNNNNNNN",
"NNNNNNNNNNp#&*&+******=&+&****+***&***********OOoX..+*=hNNNNNNNN",
"NNNNNNNNNMl;**&=******+&4t=+*****&+=************#+OO*+9bmmNNNNNN",
"NNNNNNNNmmz:29t=&**&++=wxbsu04=;42;++*&*********&*****gmmmMNNNNN",
"NNNNNNNNmnnzzcbi8yri02abmmnnvczlcvzs4+***&**&+*****+;ibmmmmNNNNN",
"NNNNNNNNMmnmmmmbbnnnbcnmmmmmmmmmmmmml0;+*48=+*+288adjnmmmmMNNNNN",
"NNNNNNNNNmmmmmmmmmnmmmmnmmmnmmmmmmmmmnkwfvbsw9axbnmmmmmmmmNNNNNN",
"NNNNNNNNNNNmmmmmmmmmmmmmmmmnmmmmmmmmmnnnmmmnnbmmmmmmmmmMNNNNNNNN",
"NNNNNNNNNNNNNNmmmmmmmmmmmmmmmmnmmmmmmmmmmmmmmmmmmmmnmNNNNNNNNNNN",
"NNNNNNNNNNNNNNNNNNmmmmmmmnmmmmmmmmmmmmmmmmmmmmmmmNNNNNNNNNNNNNNN",
"NNNNNNNNNNNNNNNNNNNNNNNNNmmmmmmmmmmmmmmmmmNNNNNNNNNNNNNNNNNNNNNN",
"NNNNNNNNNNNNNNNNNNNNNNNNNNNNNNNNNNNNNNNNNNNNNNNNNNNNNNNNNNNNNNNN",
"NNNNNNNNNNNNNNNNNNNNNNNNNNNNNNNNNNNNNNNNNNNNNNNNNNNNNNNNNNNNNNNN",
"NNNNNNNNNNNNNNNNNNNNNNNNNNNNNNNNNNNNNNNNNNNNNNNNNNNNNNNNNNNNNNNN",
"NNNNNNNNNNNNNNNNNNNNNNNNNNNNNNNNNNNNNNNNNNNNNNNNNNNNNNNNNNNNNNNN"
};
