/* XPM */
static char *result[] = {
/* columns rows colors chars-per-pixel */
"64 64 178 2 ",
"   c #201C1D",
".  c #252122",
"X  c #332A2E",
"o  c #2E2436",
"O  c #30313A",
"+  c #383545",
"@  c #503F46",
"#  c #4B4649",
"$  c #43475C",
"%  c #534C5C",
"&  c #5C4A56",
"*  c #4A5566",
"=  c #605B67",
"-  c #6B6372",
";  c #706D72",
":  c #757173",
">  c #AC2466",
",  c #B43979",
"<  c #856878",
"1  c #D95B5D",
"2  c #4C6B85",
"3  c #5F6982",
"4  c #5E7383",
"5  c #CF3B85",
"6  c #D53684",
"7  c #D93685",
"8  c #D53A86",
"9  c #DA3987",
"0  c #D63E89",
"q  c #DD3C89",
"w  c #E13E8A",
"e  c #8A7A89",
"r  c #CE4389",
"t  c #D4438A",
"y  c #DB428A",
"u  c #D5498D",
"i  c #DC4B8E",
"p  c #D6508F",
"a  c #DB4D92",
"s  c #D74F92",
"d  c #DD5193",
"f  c #DD5B9A",
"g  c #DC5B96",
"h  c #E5428B",
"j  c #EA468D",
"k  c #E3498E",
"l  c #ED488E",
"z  c #E44D90",
"x  c #ED4D91",
"c  c #E45393",
"v  c #ED5394",
"b  c #E35A96",
"n  c #ED5997",
"m  c #E35D99",
"M  c #EE5C99",
"N  c #E15598",
"B  c #CD6190",
"V  c #DC639D",
"C  c #D0699C",
"Z  c #E4659D",
"A  c #EC639D",
"S  c #E9699F",
"D  c #DE6DA5",
"F  c #DB71A3",
"G  c #DD79A9",
"H  c #E46CA1",
"J  c #EC6BA2",
"K  c #F06AA1",
"L  c #E271A5",
"P  c #EC73A6",
"I  c #E375A9",
"U  c #ED76A9",
"Y  c #E47CAC",
"T  c #ED7BAC",
"R  c #F071A6",
"E  c #F07FAE",
"W  c #F075A9",
"Q  c #E27FB0",
"!  c #758FA5",
"~  c #6F93AF",
"^  c #7499B2",
"/  c #7EAECA",
"(  c #92969C",
")  c #A28495",
"_  c #AA8797",
"`  c #B18B9C",
"'  c #9B8CA3",
"]  c #BB8FA3",
"[  c #BF93A8",
"{  c #9CA2AE",
"}  c #B9A4AE",
"|  c #B2B2B7",
" . c #F19194",
".. c #C797AD",
"X. c #D19BB3",
"o. c #D89FB9",
"O. c #E480AF",
"+. c #E98AA5",
"@. c #F19CAD",
"#. c #E584B3",
"$. c #EC84B1",
"%. c #E68AB5",
"&. c #EB8BB6",
"*. c #EB8EBA",
"=. c #F187B4",
"-. c #E790BA",
";. c #EA94BE",
":. c #F091BB",
">. c #D4A3BC",
",. c #DCA4BE",
"<. c #FEE99E",
"1. c #FCDDAB",
"2. c #979DC0",
"3. c #9DB8CC",
"4. c #87A9CA",
"5. c #ABBAC7",
"6. c #B5BFC9",
"7. c #BDBCC2",
"8. c #EB97C0",
"9. c #ED9CC3",
"0. c #F19FC5",
"q. c #C5A0C0",
"w. c #DEAEC7",
"e. c #CBBCDD",
"r. c #D3BBD9",
"t. c #E2A7C1",
"y. c #EEA1C6",
"u. c #E5AAC5",
"i. c #EFA5C8",
"p. c #EDADCA",
"a. c #E8ABC6",
"s. c #F0A2C7",
"d. c #F1A6C9",
"f. c #F3ACCD",
"g. c #EDB0CB",
"h. c #EEBFCE",
"j. c #F4B1CF",
"k. c #F6B8CE",
"l. c #F8BECC",
"z. c #EDB5D2",
"x. c #EAB9D5",
"c. c #F6B5D2",
"v. c #F8B7D3",
"b. c #F6B9D4",
"n. c #F8BAD5",
"m. c #F9BED8",
"M. c #BBC3CB",
"N. c #B2C9DA",
"B. c #A6C4D8",
"V. c #8CC6E5",
"C. c #95C5E8",
"Z. c #A5C1E5",
"A. c #BCC1E1",
"S. c #BCD2E1",
"D. c #C8C6C9",
"F. c #DCCAD2",
"G. c #C8D1DB",
"H. c #D6D7D9",
"J. c #FAC9C5",
"K. c #FBD3C0",
"L. c #EEC4DC",
"P. c #F5C1D9",
"I. c #F9C2DB",
"U. c #F7C9DE",
"Y. c #F6C1D1",
"T. c #DCDDEC",
"R. c #F6D2E3",
"E. c #EBD7E5",
"W. c #C7E1F0",
"Q. c #D0E2F4",
"!. c #DFF2FD",
"~. c #F9E3EE",
"^. c #E0E3F1",
"/. c #FDECF3",
"(. c #EAF8FE",
"). c #FFFEFE",
"_. c #F7F7FA",
"`. c None",
/* pixels */
"`.`.`.`.`.`.`.`.`.`.`.`.`.`.`.`.`.G &.:.=.E $.=.$.`.`.`.`.`.`.`.`.`.`.`.`.`.`.`.`.`.`.`.`.`.`.`.`.`.`.`.`.`.`.`.`.`.`.`.`.`.`.`.",
"`.`.`.`.`.`.`.`.`.`.`.`.`.`.`.`.H P K M v v v n R U `.`.`.`.`.`.`.`.`.`.`.`.`.`.`.`.`.`.`.`.`.`.`.`.`.`.`.`.`.`.`.`.`.`.`.`.`.`.",
"`.`.`.`.`.`.`.`.`.`.`.b `.`.`.Z A c z l x v v v v A `.`.`.`.`.`.`.`.`.`.`.`.`.`.`.`.`.`.`.`.`.`.`.`.`.`.`.`.`.`.`.`.`.`.`.`.`.`.",
"`.`.`.`.`.`.`.`.`.`.`.b `.`.g c x x l j l l l v v v Z `.`.`.`.`.`.`.`.`.`.`.`.`.`.`.`.`.`.`.`.`.`.`.`.`.`.`.`.`.`.`.`.`.`.`.`.`.",
"`.`.`.`.`.`.`.`.`.`.c c `.p c l j h q q w j x x x v k c A $.`.`.`.`.`.`.`.`.`.`.`.`.`.`.`.`.`.`.`.`.`.`.`.`.`.`.`.`.`.`.`.`.`.`.",
"`.`.`.`.`.`.`.`.`.`.z z p k l h q 8 8 9 9 j l l x l h c v A I `.`.`.`.`.`.`.`.`.`.`.`.`.`.`.`.`.`.`.`.`.`.`.`.`.`.`.`.`.`.`.`.`.",
"`.`.`.`.`.`.`.`.`.`.k l j l h 9 r `.`.r 7 w l l l h h k v M U `.`.`.%.-.%.`.`.`.`.`.`.`.`.`.`.`.`.`.`.`.`.`.`.`.`.`.`.`.`.`.`.`.",
"`.`.`.`.`.`.`.`.`.`.`.j l j 0 `.`.`.`.`.6 h l l j j h x v v U `.L U K R U $.O.`.`.`.`.`.`.`.`.`.`.`.`.`.`.`.`.`.`.`.`.`.`.`.`.`.",
"`.`.`.`.`.`.`.`.`.`.`.i k u `.`.`.`.i.`.6 h l l j h j x x x J D A n v v n M W L `.`.`.`.`.`.`.`.`.`.`.`.`.`.`.`.`.`.`.`.`.`.`.`.",
"`.`.`.`.`.`.`.`.`.`.`.`.`.`.`.`.`.9.9.;.8 j l j l j x j x x f M v v v v v c M S `.`.`.`.`.`.`.`.`.`.`.`.`.`.`.`.`.`.`.`.`.`.`.`.",
"`.`.`.`.`.`.`.`.`.`.`.`.`.`.`.`.`.8.8.%.t l l l j j j j l x z v x x v v v c v m `.`.`.`.`.`.`.`.`.`.`.`.`.`.`.`.`.`.`.`.`.`.`.`.",
"`.`.`.`.`.`.`.`.`.`.`.`.`.`.`.`.`.8.9.G y l h j j j j j j j j x x v x v x v v v `.`.`.`.`.`.`.`.`.`.`.`.`.`.`.`.`.`.`.`.`.`.`.`.",
"`.`.`.`.`.`.`.`.`.`.`.`.`.`.`.`.`.8.8.V j j j w w w w w j j j j x v x x x v x c `.`.`.`.`.`.`.`.`.`.`.`.`.`.`.`.`.`.`.`.`.`.`.`.",
"`.`.`.`.`.`.`.`.`.`.`.`.`.`.# < z.c.c.f w j w 7 9 q w w w q h J :.A k x x l c `.`.`.`.`.`.`.`.`.`.`.`.`.`.`.`.`.`.`.`.`.`.`.`.`.",
"`.`.`.`.`.`.`.`.`.`.`.`.`.: ( e z.m.i.H I Y I D a 9 q w 9 z *.c.m.=.h l k x m `.`.`.`.`.`.`.`.`.`.`.`.`.`.`.`.`.`.`.`.`.`.`.`.`.",
"`.`.`.`.`.`.`.`.`.`.`.`.`.M.M.e c.v.c.v.m.m.m.c.9.D q 7 N 0.v.v.v.0.l l x x v A U `.`.`.`.`.`.`.`.`.`.`.`.`.`.`.`.`.`.`.`.`.`.`.",
"`.`.`.`.`.`.`.`.`.`.`.`.G.S.| ] v.n.m.m.m.P.I.I.I.f.G a 0.v.f.f.f.f.v l l x l x v S `.`.`.`.`.`.`.`.`.`.`.`.`.`.`.`.`.`.`.`.`.`.",
"`.`.`.`.`.`.`.`.`.`.`.E.B.{ ) a.n.v.g...` _ ) >.I.b.s.;.v.f.d.d.f.c.M l l l x x x x b `.`.`.`.`.`.`.`.`.`.`.`.`.`.`.`.`.`.`.`.`.",
"`.`.`.`.`.`.`.`.`.`.`.^.! < o.v.v.>.} D.M.^ 2 * [ m.k.j.c.0.s.0.v.v.n l l l l l x x k `.`.`.`.`.`.`.`.`.`.`.`.`.`.`.`.`.`.`.`.`.",
"`.`.`.`.`.`.`.`.`.z.P.T.' w.c.v.p.F._.N.~ 5.M.* & j.c.v.f.0.0.f.b.f.x l l l l l x x i `.`.`.`.`.`.`.`.`.`.`.`.`.`.`.`.`.`.`.`.`.",
"`.`.`.`.`.`.`.`.`.c.I.L.z.v.v.v.R.).W.^ M.H.D.# X _ X.j.d.0.f.v.b.8.q w l l l j l j u `.`.`.`.`.`.`.`.`.`.`.`.`.`.`.`.`.`.`.`.`.",
"`.`.`.`.`.`.`.`.`.j.b.b.P.v.v.b._.(.V.4 | D.;   X ` t.f.f.j.v.c.v.L 9 j l l l l l h u `.`.`.`.`.`.`.`.`.`.`.`.`.`.`.`.`.`.`.`.`.",
"`.`.`.`.`.`.`.`.`.j.v.v.b.j.f.U.).!./ + % % O   @ ] X.g.c.v.v.v.8.y 9 w h j j j h h `.`.`.`.`.`.`.`.`.`.`.`.`.`.`.`.`.`.`.`.`.`.",
"`.`.`.`.`.`.`.`.`.y.g.v.;.C y.U.).(.5.+ o - = O < ..t.v.v.v.c.9.N 7 w j l l j l h t `.`.`.`.`.`.`.`.`.`.`.`.`.`.`.`.`.`.`.`.`.`.",
"`.`.`.`.`.`.`.`.`.`.;.G , , f.b./.(.V.2 + $ 3 ' a.u.g.v.j.s.;.V 7 9 j j l l l w 0 `.`.`.`.`.`.`.`.`.`.`.`.`.`.`.`.`.`.`.`.`.`.`.",
"`.`.`.`.`.`.`.`.`.`.8.F > B c.c.P.~.Q.C.4.2.q.c.v.v.f.-.$.W S i q w j j l l j w t `.`.`.`.`.`.`.`.`.`.`.`.`.`.`.`.`.`.`.`.`.`.`.",
"`.`.`.`.`.`.`.`.`.`.9.F 1 @.b.v.v.v.m.u.>.X.o.c.c.c.%.P M v l l l l j j h w 9 0 `.`.`.`.`.`.`.`.`.`.`.`.`.`.`.`.`.`.`.`.`.`.`.`.",
"`.`.`.`.`.`.`.`.`.`.`.+. .c.c.v.v.v.v.u.t.t.f.c.c.y.Z x l l l l l l j w w 0 u `.T =.E W T $.$.`.`.`.`.`.`.`.`.`.`.`.`.`.`.`.`.`.",
"`.`.`.`.`.`.`.`.`.`.`.f.c.v.v.c.v.b.v.j.j.f.f.f.d.#.l l l l l l j y 0 y t `.H J A v l l l x K E Y `.`.`.`.`.`.`.`.`.`.`.`.`.`.`.",
"`.`.`.`.`.`.`.`.`.`.`.`.f.f.c.c.v.c.c.j.f.d.y.;.-.#.k l l l l l l j u `.`.H M x l l l l l l l v P `.`.`.`.`.`.`.`.`.`.`.`.`.`.`.",
"`.`.`.`.`.`.`.`.`.`.`.`.`.`.y.i.i.i.y.9.9.%.Y Y L V y j l l l l l l h `.m v l l l j j j l l l l v H `.`.`.`.`.`.`.`.`.`.`.`.`.`.",
"`.`.`.`.`.`.`.`.`.`.`.`.`.`.`.`.`.;.;.;.Y I J M v x y q h l l l l l j i l l l j h j j j j l l l l n `.`.`.`.`.`.`.`.`.`.`.`.`.`.",
"`.`.`.`.`.`.`.`.`.`.`.`.`.`.`.`.;.;.9.&.S n l j l l j h h l h l l l j h h j j j j j j l l j w l l v `.`.`.`.`.`.`.`.`.`.`.`.`.`.",
"`.`.`.`.`.`.`.`.`.`.`.`.`.`.`.`.s.s.f.Y n l l l h h j l j j h j l j h w y j h h w w w w l l j l l l `.S S P R T &.&.O.`.`.`.`.`.",
"`.`.`.`.`.`.`.`.`.`.`.`.`.`.`.f.v.c.f.L l l l l h j h y h h l h w w w 7 q h 7 7 7 7 w l l l j l l l v x l l l v M W :.Y `.`.`.`.",
"`.`.`.`.`.`.`.`.`.`.`.`.`.`.`.c.c.c.f.I j l l l l h 9 9 9 w w w w w 7 6 9 8 8 8 w l l l l j j l l l j l l l l v v n R &.`.`.`.`.",
"`.`.`.`.`.`.`.`.i.f.j.`.`.`.f.v.c.c.f.%.c l l l l j h 9 6 5 8 0 8 8 6 9 8 `.`.y w l l l x h h j h j j j j j l v v n M $.`.`.`.`.",
"`.`.`.`.`.`.`.i.d.s.y.f.`.`.c.c.v.c.f.9.L j l l l h h 7 6 u `.`.`.9 6 8 `.`.t w j l l l l j j l l l l l l j j v v n M A `.`.`.`.",
"`.`.`.`.`.`.i.d.s.0.9.9.9.i.j.v.v.v.c.s.F k h h q 0 7 6 p %.g.b.I 8 9 `.`.`.0 h j l j j l l l l l l l l l l l v v M M A `.`.`.`.",
"`.`.`.`.`.`.f.f.s.9.9.;.;.8.f.b.v.v.v.O.h w 0 u V V V O.;.j.v.b.c.I `.`.`.`.0 w j j j j j j j j l l l l l l l c v M M g `.`.`.`.",
"`.`.`.`.`.i.f.f.s.9.;.8.y.;.i.b.v.v.v.D h w i O.#.#.i.f.v.v.v.b.J.Y.`.`.`.`.t q w j j h q 0 q q h l l l l k l v v M b `.`.`.`.`.",
"`.`.`.`.`.f.f.d.s.9.;.c.P.c.f.c.v.v.v.-.d k k d D *.v.v.v.v.v.k.<.K.b.`.`.`.`.0 q q 8 9 q w w q h l l l j j x v v n `.`.`.`.`.`.",
"`.`.`.`.f.f.f.s.y.;.f.n.b.b.m.b.j.v.b.v.s.#.I %.9.f.v.v.v.v.x.b.1.J.b.`.`.`.`.`.r 6 8 q q q q q j j j h j l x v v `.`.`.`.`.`.`.",
"`.`.`.`.f.f.f.s.9.y.v.v.v.v.c.b.b.b.c.c.c.k.f.f.f.c.c.c.c.v.e.Z.Y.x.A.`.`.`.`.`.`.8 8 9 0 w h j j h h j l l x c `.`.`.`.`.`.`.`.",
"`.`.`.`.f.c.d.s.9.c.c.v.c.c.v.v.b.v.c.v.c.c.c.f.c.f.c.c.c.f.e.C.x.e.C.`.`.`.`.`.0 q w w j j h h h h j j l c `.`.`.`.`.`.`.`.`.`.",
"`.`.`.`.f.f.f.9.d.v.v.c.v.c.f.f.v.c.c.f.f.c.c.f.c.f.f.c.f.f.z.r.x.r.e.`.`.`.`.`.7 q w w w w h w j j j j v `.`.`.`.`.`.`.`.`.`.`.",
"`.`.`.`.d.f.s.9.c.c.b.c.v.f.;.9.i.f.f.c.d.d.f.f.f.f.f.f.0.f.c.k.b.k.b.p.`.`.`.r q 9 w j w w j j h j j j v H `.`.`.`.`.`.`.`.`.`.",
"`.`.`.`.d.f.s.0.c.n.c.b.b.f.`.`.;.8.0.9.8.0.f.f.d.f.f.s.;.f.f.k.j.k.j.j.c.j.`.t q q w w j q w j h j j j l A F `.`.`.`.`.`.`.`.`.",
"`.`.`.`.0.d.0.f.v.v.v.c.v.p.`.`.`.`.8.;.-.8.9.9.9.9.0.9.;.9.f.f.c.c.f.c.v.f.`.`.q q w w w j w j h j j j j n L `.`.`.`.`.`.`.`.`.",
"`.`.`.`.`.i.9.f.v.v.c.v.c.i.`.`.`.`.`.`.`.`.`.;.;.;.;.;.*.;.f.f.f.f.c.c.v.c.`.`.q q w w w w w w j h j j l n H `.`.`.`.`.`.`.`.`.",
"`.`.`.`.`.9.8.f.c.c.c.c.c.i.`.`.`.`.`.`.`.`.`.`.*.;.;.;.;.;.;.s.f.y.0.c.c.f.`.`.`.q q w w w w j w j j j x v V `.`.`.`.`.`.`.`.`.",
"`.`.`.`.`.`.9.c.c.c.f.c.f.0.`.`.`.`.`.`.`.`.`.`.`.;.;.8.9.;.;.;.;.;.0.c.z.f.`.`.`.u 0 q q w w j j w h h l c `.`.`.`.`.`.`.`.`.`.",
"`.`.`.`.`.`.9.f.c.f.c.c.f.`.`.`.`.`.`.`.`.`.`.`.`.`.8.8.9.9.;.`.8.9.f.c.c.d.`.`.`.`.`.t q w w w w h u `.`.`.`.`.`.`.`.`.`.`.`.`.",
"`.`.`.`.`.`.9.f.f.c.f.f.i.`.`.`.`.`.`.`.`.`.`.`.`.`.y.9.9.9.9.`.y.p.f.c.c.f.`.`.`.`.`.u 8 q w w j h u `.`.`.`.`.`.`.`.`.`.`.`.`.",
"`.`.`.`.`.`.9.f.f.f.d.0.`.`.`.`.`.`.`.`.`.`.`.`.`.`.i.9.9.9.9.`.s.f.f.f.c.d.`.`.`.u q q w w w h w h `.`.`.`.`.`.`.`.`.`.`.`.`.`.",
"`.`.`.`.`.`.`.i.i.i.9.`.`.`.`.`.`.`.`.`.`.`.`.`.`.`.s.9.0.0.;.`.s.f.f.f.c.c.`.`.`.t q w w t y t u `.`.`.`.`.`.`.`.`.`.`.`.`.`.`.",
"`.`.`.`.`.`.`.`.`.`.`.`.`.`.`.`.`.`.`.`.`.`.`.`.`.d.s.0.s.i.9.`.s.d.f.f.f.j.d.`.`.t q w t `.`.`.`.`.`.`.`.`.`.`.`.`.`.`.`.`.`.`.",
"`.`.`.`.`.`.`.`.`.`.`.`.`.`.`.`.`.`.`.`.`.`.`.`.`.d.d.d.d.d.9.`.s.d.d.f.f.c.f.`.`.`.y w t `.`.`.`.`.`.`.`.`.`.`.`.`.`.`.`.`.`.`.",
"`.`.`.`.`.`.`.`.`.`.`.`.`.`.`.`.`.`.`.`.`.`.`.`.`.f.d.d.d.d.0.`.s.d.d.f.f.f.f.`.`.`.`.y h y i i i c `.`.`.`.`.`.`.`.`.`.`.`.`.`.",
"`.`.`.`.`.`.`.`.`.`.`.`.`.`.`.`.`.`.`.`.`.`.`.`.`.f.f.f.f.f.i.`.0.d.d.f.f.f.i.`.`.`.`.`.t y q k i `.`.`.`.`.`.`.`.`.`.`.`.`.`.`.",
"`.`.`.`.`.`.`.`.`.`.`.`.`.`.`.`.`.`.`.`.`.`.`.`.`.f.f.f.f.f.i.`.`.i.d.d.f.d.0.`.`.`.`.`.`.`.`.`.`.`.`.`.`.`.`.`.`.`.`.`.`.`.`.`.",
"`.`.`.`.`.`.`.`.`.`.`.`.`.`.`.`.`.`.`.`.`.`.`.`.`.d.f.f.f.f.0.`.`.9.d.d.d.0.`.`.`.`.`.`.`.`.`.`.`.`.`.`.`.`.`.`.`.`.`.`.`.`.`.`.",
"`.`.`.`.`.`.`.`.`.`.`.`.`.`.`.`.`.`.`.`.`.`.`.`.`.9.f.c.c.i.`.`.`.`.0.i.0.`.`.`.`.`.`.`.`.`.`.`.`.`.`.`.`.`.`.`.`.`.`.`.`.`.`.`.",
"`.`.`.`.`.`.`.`.`.`.`.`.`.`.`.`.`.`.`.`.`.`.`.`.`.`.i.f.d.`.`.`.`.`.`.8.`.`.`.`.`.`.`.`.`.`.`.`.`.`.`.`.`.`.`.`.`.`.`.`.`.`.`.`."
};
