/* XPM */
static char *result[] = {
/* columns rows colors chars-per-pixel */
"64 64 173 2 ",
"   c #ED2723",
".  c #ED2A26",
"X  c #ED2C2A",
"o  c #EE332B",
"O  c #EE3A2B",
"+  c #EB3330",
"@  c #EF442A",
"#  c #EF4D29",
"$  c #EF4327",
"%  c #F04D29",
"&  c #F15429",
"*  c #F15B29",
"=  c #F25A25",
"-  c #F26627",
";  c #F36C27",
":  c #F26328",
">  c #F36828",
",  c #F37527",
"<  c #F57D26",
"1  c #F47528",
"2  c #DF5C5E",
"3  c #E44949",
"4  c #E56047",
"5  c #F48525",
"6  c #F58B26",
"7  c #F79525",
"8  c #F79B24",
"9  c #F89C24",
"0  c #F7A325",
"q  c #F8A326",
"w  c #F9AC27",
"e  c #F7AC28",
"r  c #F8AE29",
"t  c #F7A728",
"y  c #F9B62B",
"u  c #F9BC2C",
"i  c #F9B527",
"p  c #EFA439",
"a  c #8BC43E",
"s  c #92C73E",
"d  c #96C93E",
"f  c #9AC93E",
"g  c #A2CC3D",
"h  c #ADCF3D",
"j  c #AED03D",
"k  c #B4D23C",
"l  c #BBD43C",
"z  c #C4D63B",
"x  c #CCD93A",
"c  c #C8D73B",
"v  c #D5DC3A",
"b  c #DCDE39",
"n  c #DEDE37",
"m  c #F9C42E",
"M  c #FACB2F",
"N  c #FACB30",
"B  c #F6C437",
"V  c #E0DF37",
"C  c #FAD331",
"Z  c #FCDD33",
"A  c #ECE437",
"S  c #E4E038",
"D  c #EBE339",
"F  c #F4E537",
"G  c #FCE536",
"H  c #FEE836",
"J  c #F4E538",
"K  c #E28C5D",
"L  c #E7A954",
"P  c #8BC544",
"I  c #88C64E",
"U  c #89C553",
"Y  c #88C65E",
"T  c #87C667",
"R  c #85C76B",
"E  c #87C767",
"W  c #85C871",
"Q  c #83C87B",
"!  c #85C770",
"~  c #C5D944",
"^  c #766FB4",
"/  c #7F69B1",
"(  c #6E75B9",
")  c #657BBE",
"_  c #6F7ABB",
"`  c #7273B8",
"'  c #617EC0",
"]  c #8F56A2",
"[  c #8D5FA9",
"{  c #8D5DA7",
"}  c #9157A3",
"|  c #9359A5",
" . c #8365AD",
".. c #8A61AA",
"X. c #8168AF",
"o. c #966DAE",
"O. c #8068B0",
"+. c #9A76B5",
"@. c #7FCA9B",
"#. c #7ECAA3",
"$. c #7DCBAB",
"%. c #7BCCB4",
"&. c #7BCCBC",
"*. c #4C8ECC",
"=. c #478ECD",
"-. c #5687C7",
";. c #5D82C3",
":. c #518BC9",
">. c #4593CF",
",. c #4894CE",
"<. c #4998CF",
"1. c #4594D0",
"2. c #4C9BD1",
"3. c #4995D1",
"4. c #509ED1",
"5. c #6080C2",
"6. c #53A3D2",
"7. c #5BACD5",
"8. c #5DB1D5",
"9. c #6CA3D4",
"0. c #61B5D6",
"q. c #66BAD8",
"w. c #6ABFD9",
"e. c #70B2DD",
"r. c #7EBCE3",
"t. c #7ACCC4",
"y. c #79CDCA",
"u. c #6DC3DA",
"i. c #77CDD5",
"p. c #79CED3",
"a. c #71C5DB",
"s. c #75CDDD",
"d. c #78CDD8",
"f. c #76CEE0",
"g. c #D19598",
"h. c #81C98B",
"j. c #86CB86",
"k. c #80CA97",
"l. c #99D295",
"z. c #ADDCB3",
"x. c #A8DAB9",
"c. c #DBD084",
"v. c #DCE78E",
"b. c #D0E9B8",
"n. c #ADB8DB",
"m. c #C8BBC4",
"M. c #BFCBDA",
"N. c #B3E1DC",
"B. c #92D6E9",
"V. c #9FD4ED",
"C. c #A5CBE8",
"Z. c #B3CFEA",
"A. c #A5D6EF",
"S. c #ABE2F0",
"D. c #B7E6FA",
"F. c #B9E6FA",
"G. c #BDE8FB",
"H. c #B7E5F7",
"J. c #C9C4CD",
"K. c #C9DBCE",
"L. c #C8DDD4",
"P. c #C5E6C3",
"I. c #C4E3D5",
"U. c #C7D9E4",
"Y. c #C6E6EE",
"T. c #C3E3F3",
"R. c #C3EAFB",
"E. c #CCEDFB",
"W. c #C7E7F6",
"Q. c #D3EFFB",
"!. c #CEF0FD",
"~. c #D4F0FC",
"^. c None",
/* pixels */
"^.^.^.^.^.^.^.^.^.^.^.^.^.^.^.^.^.^.^.^.^.^.^.^.^.^.^.^.^.^.^.^.^.^.^.^.^.^.^.^.^.^.^.^.^.^.^.^.^.^.^.^.^.^.^.^.^.^.^.^.^.^.^.^.",
"^.^.^.^.^.^.^.^.^.^.^.^.^.^.^.^.^.^.^.^.^.^.^.^.^.^.^.^.^.^.^.^.^.^.^.^.^.^.^.^.^.^.^.^.^.^.^.^.^.^.^.^.^.^.^.^.^.^.^.^.^.^.^.^.",
"^.^.^.^.^.^.^.^.^.^.^.^.^.^.^.^.^.^.^.^.^.^.^.^.^.^.^.^.^.^.^.^.^.^.^.^.^.^.^.^.^.^.^.^.^.^.^.^.^.^.^.^.^.^.^.^.^.^.^.^.^.^.^.^.",
"^.^.^.^.^.^.^.^.^.^.^.^.^.^.^.^.^.^.^.^.^.^.^.^.^.^.^.^.^.^.^.^.^.^.^.^.^.^.^.^.^.^.^.^.^.^.^.^.^.^.^.^.^.^.^.^.^.^.^.^.^.^.^.^.",
"^.^.^.^.^.^.^.^.^.^.^.^.^.^.^.^.^.^.^.^.^.^.^.^.^.^.^.^.^.^.^.^.^.^.^.^.^.^.^.^.^.^.^.^.^.^.^.^.^.^.^.^.^.^.^.^.^.^.^.^.^.^.^.^.",
"^.^.^.^.^.^.^.^.^.^.^.^.^.^.^.^.^.^.^.^.^.^.^.^.^.^.^.^.^.^.^.^.^.^.^.^.^.^.^.^.^.^.^.^.^.^.^.^.^.^.^.^.^.^.^.^.^.^.^.^.^.^.^.^.",
"^.^.^.^.^.^.^.^.^.^.^.^.^.^.^.^.^.^.^.^.^.^.^.^.^.^.^.^.^.^.^.^.^.^.^.^.^.^.^.^.^.^.^.^.^.^.^.^.^.^.^.^.^.^.^.^.^.^.^.^.^.^.^.^.",
"^.^.^.^.^.^.^.^.^.^.^.^.^.^.^.^.^.^.^.^.^.^.^.^.^.^.^.^.^.^.^.^.^.^.^.^.^.^.^.^.^.^.^.^.^.^.^.^.^.^.^.^.^.^.^.^.^.^.^.^.^.^.^.^.",
"^.^.^.^.^.^.^.^.^.^.^.^.^.^.^.^.^.^.^.^.^.^.^.^.^.^.^.^.^.^.^.^.^.^.^.^.^.^.^.^.^.^.^.^.^.^.^.^.^.^.^.^.^.^.^.^.^.^.^.^.^.^.^.^.",
"^.^.^.^.^.^.^.^.^.^.^.^.^.^.^.^.^.^.^.^.^.^.^.^.^.^.^.^.^.^.^.^.^.^.^.^.^.^.^.^.^.^.^.^.^.^.^.^.^.^.^.^.^.^.^.^.^.^.^.^.^.^.^.^.",
"^.^.^.^.^.^.^.^.^.^.^.^.^.^.^.^.^.^.^.^.^.^.^.^.^.^.^.^.^.^.^.^.^.^.^.^.^.^.^.^.^.^.^.^.^.^.^.^.^.^.^.^.^.^.^.^.^.^.^.^.^.^.^.^.",
"^.^.^.^.^.^.^.^.^.^.^.^.^.^.^.^.^.^.^.^.^.^.^.^.^.^.^.^.^.^.^.^.^.^.^.^.^.^.^.^.^.^.^.^.^.^.^.^.^.^.^.^.^.^.^.^.^.^.^.^.^.^.^.^.",
"^.^.^.^.^.^.^.^.^.^.^.^.^.^.^.^.^.^.^.^.^.^.^.^.^.^.^.^.^.^.^.^.^.^.^.^.^.^.^.^.^.^.^.^.^.^.^.^.^.^.^.^.^.^.^.^.^.^.^.^.^.^.^.^.",
"^.^.^.^.^.^.^.^.^.^.^.^.^.^.^.^.^.^.^.^.^.^.^.^.^.^.^.^.^.^.^.^.^.^.^.^.^.^.^.^.^.^.^.^.^.^.^.^.^.^.^.^.^.^.^.^.^.^.^.^.^.^.^.^.",
"^.^.^.^.^.^.^.^.^.^.^.^.^.^.^.^.^.^.^.^.^.^.^.^.^.^.^.^.. . . . X . . . . ^.^.^.^.^.^.^.^.^.^.^.^.^.^.^.^.^.^.^.^.^.^.^.^.^.^.^.",
"^.^.^.^.^.^.^.^.^.^.^.^.^.^.^.^.^.^.^.^.^.^.^.^.. X . o X X o o o o o X o X X . . ^.^.^.^.^.^.^.^.^.^.^.^.^.^.^.^.^.^.^.^.^.^.^.",
"^.^.^.^.^.^.^.^.^.^.^.^.^.^.^.^.^.^.^.^.^.. X X X o % & > 1 < 5 < < 1 ; * # O o X X . ^.^.^.^.^.^.^.^.^.^.^.^.^.^.^.^.^.^.^.^.^.",
"^.^.^.^.^.^.^.^.^.^.^.^.^.^.^.^.^.^.^.. . X o % ; 6 7 8 9 9 9 9 9 9 9 9 8 8 6 , & O X . . ^.^.^.^.^.^.^.^.^.^.^.^.^.^.^.^.^.^.^.",
"^.^.^.^.^.^.^.^.^.^.^.^.^.^.^.^.^.. X X O * 5 7 9 9 0 t y m m N N N m y r t 9 9 8 6 > @ X X . ^.^.^.^.^.^.^.^.^.^.^.^.^.^.^.^.^.",
"^.^.^.^.^.^.^.^.^.^.^.^.^.^.^.^.X X o * 6 9 9 t i M Z G H H H H H H H H H Z C y e 9 8 7 > O X X ^.^.^.^.^.^.^.^.^.^.^.^.^.^.^.^.",
"^.^.^.^.^.^.^.^.^.^.^.^.^.^.^.X X $ < 8 8 e m Z H H H A V v x z z c v b A J H H G N r 9 9 5 & X o . ^.^.^.^.^.^.^.^.^.^.^.^.^.^.",
"^.^.^.^.^.^.^.^.^.^.^.^.^.^.X X & 6 8 q u Z H G V x h f s a a a a a a a s h z S J H G M t 9 7 - o X . ^.^.^.^.^.^.^.^.^.^.^.^.^.",
"^.^.^.^.^.^.^.^.^.^.^.^.^.X o : 7 9 r C H H V l s a a P I T R Q Q W T U P P a P h v J H Z y 9 9 1 O X . ^.^.^.^.^.^.^.^.^.^.^.^.",
"^.^.^.^.^.^.^.^.^.^.^.^.X o - 7 9 y Z H A z P a P Y h.%.t.p.s.s.f.d.s.y.&.k.E P a s k V H G m 0 7 1 O X X ^.^.^.^.^.^.^.^.^.^.^.",
"^.^.^.^.^.^.^.^.^.^.^.X X : 8 9 u G H b f a P R $.i.f.f.s.a.u.u.u.u.a.s.s.f.s.%.Q P a d x H H N 0 9 1 o X ^.^.^.^.^.^.^.^.^.^.^.",
"^.^.^.^.^.^.^.^.^.^.. X & 7 9 u H H x s P U k.d.f.s.u.7.6.<.,.>.>.>.<.4.7.q.a.f.s.%.E a a k F H N q 9 > X X ^.^.^.^.^.^.^.^.^.^.",
"^.^.^.^.^.^.^.^.^.. X @ 6 9 i H H x P a R t.f.s.q.6.>.>.>.,.*.:.:.*.*.>.1.3.2.0.a.f.p.j.P a k F H N 9 8 * X X ^.^.^.^.^.^.^.^.^.",
"^.^.^.^.^.^.^.^.^.X o , 9 e Z H x a P Q i.f.u.6.,.>.*.;.` X...[ ..[  .^ ) :.>.1.4.q.s.s.@.P a l J H u 9 6 O X ^.^.^.^.^.^.^.^.^.",
"^.^.^.^.^.^.^.^.. X & 9 q C H n s a Q i.f.q.2.1.*.)  .| | } | | | | } | } ..` :.>.>.8.s.s.@.P a c H Z r 9 1 X X ^.^.^.^.^.^.^.^.",
"^.^.^.^.^.^.^.^.X O 6 9 u H F g a R p.f.0.<.1.;.X.} | } } ^.^.^.^.^.^.^.| } | ..' >.>.7.s.s.h.P s n H N 9 7 % X . ^.^.^.^.^.^.^.",
"^.^.^.^.^.^.^.X X * 9 t Z H z a U t.f.q.3.>.5...} } ^.^.^.^.^.^.^.^.^.^.^.^.| | | ( >.1.8.s.i.W a h J H y 9 1 o . ^.^.^.^.^.^.^.",
"^.^.^.^.^.^.^.X o 5 9 m H S P P @.f.u.2.>.;...| } ^.^.^.^.^.^.^.^.^.^.^.^.^.^.^.| | ( 1.1.q.s.&.I P x H C 9 7 @ X ^.^.^.^.^.^.^.",
"^.^.^.^.^.^.^.X & 7 q Z J l a E p.s.6.1.-...| } ^.^.^.^.^.^.^.^.^.^.^.^.^.^.^.^.^.| | ) >.2.a.s.h.a g J H r 8 - X . ^.^.^.^.^.^.",
"^.^.^.^.^.^.. X ; 8 y H D d a #.f.q.>.*./ | ] ^.^.^.^.^.^.^.^.^.^.^.^.^.^.^.^.^.^.^.| ..-.>.7.s.t.I P v H M 8 5 o X ^.^.^.^.^.^.",
"^.^.^.^.^.^.X O 5 p c.b.P.z.l.p.s.6.1.' | | ^.^.^.^.^.^.^.^.^.^.^.^.^.^.^.^.^.^.^.^.} } ^ >.,.a.s.Q a k H C 0 7 @ X ^.^.^.^.^.^.",
"^.^.^.^.^.^.X $ L K.E.E.Q.Q.E.S.a.1.*.X.| ^.^.^.^.^.^.^.^.^.^.^.^.^.^.^.^.^.^.^.^.^.^.| [ -.>.0.f.$.P f A H w 8 = X . ^.^.^.^.^.",
"^.^.^.^.^.^.X 4 L.!.Q.Q.Q.Q.Q.Q.A.2.;.] ] ^.^.^.^.^.^.^.^.^.^.^.^.^.^.^.^.^.^.^.^.^.^.} | ( >.6.s.y.I P S H B L K 3 + ^.^.^.^.^.",
"^.^.^.^.^.  X g.E.Q.Q.Q.Q.Q.Q.Q.R.e._ +.+.^.^.^.^.^.^.^.^.^.^.^.^.^.^.^.^.^.^.^.^.^.^.^.| / =.,.a.d.R a ~ v.I.Y.W.U.m.^.^.^.^.^.",
"^.^.^.^.^.2 3 J.~.Q.~.Q.Q.Q.Q.Q.Q.A.C.T.W.G.^.^.^.^.^.^.^.^.^.^.^.^.^.^.^.^.^.^.^.^.^.^.} ..9.r.B.B.j.P z.G.E.~.~.~.E.G.^.^.^.^.",
"^.^.^.^.W.T.M.T.~.Q.Q.Q.Q.Q.Q.Q.Q.G.R.Q.Q.Q.R.^.^.^.^.^.^.^.^.^.^.^.^.^.^.^.^.^.^.^.^.^.o.n.R.E.!.R.N.x.H.G.~.~.~.~.~.E.F.^.^.^.",
"^.^.^.R.~.E.G.F.R.Q.Q.~.~.~.Q.Q.R.F.G.Q.Q.Q.R.D.^.^.^.^.^.^.^.^.^.^.^.^.^.^.^.^.^.^.^.^.Z.E.Q.Q.Q.Q.E.F.D.F.Q.~.~.Q.Q.Q.F.^.^.^.",
"^.^.D.R.R.R.D.D.D.R.R.R.E.R.R.G.F.F.D.F.R.R.G.D.^.^.^.^.^.^.^.^.^.^.^.^.^.^.^.^.^.F.^.H.R.Q.Q.Q.Q.Q.~.E.D.D.R.E.Q.Q.~.R.F.D.^.^.",
"^.F.F.D.D.D.G.R.R.F.D.D.F.D.D.D.H.D.D.D.D.D.D.D.D.^.^.^.^.^.^.^.^.^.^.^.^.^.^.R.E.E.F.F.E.Q.~.~.Q.Q.Q.Q.F.F.D.F.R.R.R.D.D.D.^.^.",
"G.F.H.H.D.G.Q.Q.Q.R.D.D.F.F.D.D.D.D.D.D.D.D.D.D.D.D.^.^.^.^.^.^.^.^.^.^.^.^.D.E.E.R.F.F.E.Q.Q.~.Q.Q.Q.Q.F.D.D.D.D.D.D.D.D.D.D.^.",
"D.D.D.D.D.G.E.~.E.G.F.D.D.D.D.D.D.D.D.D.D.D.D.D.D.D.D.^.^.^.^.^.^.^.^.^.^.^.D.D.F.F.D.D.G.R.E.E.Q.E.E.G.D.D.D.D.D.D.D.D.D.D.D.D.",
"D.D.D.D.D.D.F.F.F.D.D.D.D.D.D.D.F.D.D.D.D.D.D.D.D.D.H.^.^.^.^.^.^.^.^.^.^.D.D.D.D.D.D.D.D.F.D.G.F.F.D.D.D.D.D.D.D.D.D.D.D.D.D.D.",
"D.D.D.D.D.D.F.D.D.D.D.D.D.D.D.D.D.D.D.D.D.D.D.D.D.D.D.^.^.^.^.^.^.^.^.^.^.D.D.D.D.D.D.D.D.D.D.D.D.D.D.D.D.D.D.D.D.F.D.D.D.D.D.D.",
"D.D.D.D.D.D.D.D.D.D.D.D.D.D.D.D.D.D.D.D.D.D.D.D.D.D.D.^.^.^.^.^.^.^.^.^.^.^.D.D.D.D.D.D.D.D.D.D.F.D.D.D.D.D.D.D.D.D.D.D.D.D.D.D.",
"^.D.D.D.D.D.D.D.D.D.D.D.D.D.D.D.D.D.D.D.D.D.D.D.D.D.^.^.^.^.^.^.^.^.^.^.^.^.D.D.D.D.D.D.D.D.D.D.D.D.D.D.D.D.D.D.D.D.D.D.D.D.D.D.",
"^.^.D.D.D.D.D.D.D.D.D.F.D.D.D.D.D.D.D.D.D.D.D.D.F.^.^.^.^.^.^.^.^.^.^.^.^.^.^.^.D.D.D.D.D.D.D.D.D.D.D.D.D.D.D.D.D.D.D.D.F.D.D.^.",
"^.^.^.^.^.^.^.^.^.^.^.^.^.^.^.^.^.^.^.^.^.^.^.^.^.^.^.^.^.^.^.^.^.^.^.^.^.^.^.^.^.^.^.^.^.^.^.^.^.^.^.^.^.^.^.^.^.^.^.^.^.^.^.^.",
"^.^.^.^.^.^.^.^.^.^.^.^.^.^.^.^.^.^.^.^.^.^.^.^.^.^.^.^.^.^.^.^.^.^.^.^.^.^.^.^.^.^.^.^.^.^.^.^.^.^.^.^.^.^.^.^.^.^.^.^.^.^.^.^.",
"^.^.^.^.^.^.^.^.^.^.^.^.^.^.^.^.^.^.^.^.^.^.^.^.^.^.^.^.^.^.^.^.^.^.^.^.^.^.^.^.^.^.^.^.^.^.^.^.^.^.^.^.^.^.^.^.^.^.^.^.^.^.^.^.",
"^.^.^.^.^.^.^.^.^.^.^.^.^.^.^.^.^.^.^.^.^.^.^.^.^.^.^.^.^.^.^.^.^.^.^.^.^.^.^.^.^.^.^.^.^.^.^.^.^.^.^.^.^.^.^.^.^.^.^.^.^.^.^.^.",
"^.^.^.^.^.^.^.^.^.^.^.^.^.^.^.^.^.^.^.^.^.^.^.^.^.^.^.^.^.^.^.^.^.^.^.^.^.^.^.^.^.^.^.^.^.^.^.^.^.^.^.^.^.^.^.^.^.^.^.^.^.^.^.^.",
"^.^.^.^.^.^.^.^.^.^.^.^.^.^.^.^.^.^.^.^.^.^.^.^.^.^.^.^.^.^.^.^.^.^.^.^.^.^.^.^.^.^.^.^.^.^.^.^.^.^.^.^.^.^.^.^.^.^.^.^.^.^.^.^.",
"^.^.^.^.^.^.^.^.^.^.^.^.^.^.^.^.^.^.^.^.^.^.^.^.^.^.^.^.^.^.^.^.^.^.^.^.^.^.^.^.^.^.^.^.^.^.^.^.^.^.^.^.^.^.^.^.^.^.^.^.^.^.^.^.",
"^.^.^.^.^.^.^.^.^.^.^.^.^.^.^.^.^.^.^.^.^.^.^.^.^.^.^.^.^.^.^.^.^.^.^.^.^.^.^.^.^.^.^.^.^.^.^.^.^.^.^.^.^.^.^.^.^.^.^.^.^.^.^.^.",
"^.^.^.^.^.^.^.^.^.^.^.^.^.^.^.^.^.^.^.^.^.^.^.^.^.^.^.^.^.^.^.^.^.^.^.^.^.^.^.^.^.^.^.^.^.^.^.^.^.^.^.^.^.^.^.^.^.^.^.^.^.^.^.^.",
"^.^.^.^.^.^.^.^.^.^.^.^.^.^.^.^.^.^.^.^.^.^.^.^.^.^.^.^.^.^.^.^.^.^.^.^.^.^.^.^.^.^.^.^.^.^.^.^.^.^.^.^.^.^.^.^.^.^.^.^.^.^.^.^.",
"^.^.^.^.^.^.^.^.^.^.^.^.^.^.^.^.^.^.^.^.^.^.^.^.^.^.^.^.^.^.^.^.^.^.^.^.^.^.^.^.^.^.^.^.^.^.^.^.^.^.^.^.^.^.^.^.^.^.^.^.^.^.^.^.",
"^.^.^.^.^.^.^.^.^.^.^.^.^.^.^.^.^.^.^.^.^.^.^.^.^.^.^.^.^.^.^.^.^.^.^.^.^.^.^.^.^.^.^.^.^.^.^.^.^.^.^.^.^.^.^.^.^.^.^.^.^.^.^.^.",
"^.^.^.^.^.^.^.^.^.^.^.^.^.^.^.^.^.^.^.^.^.^.^.^.^.^.^.^.^.^.^.^.^.^.^.^.^.^.^.^.^.^.^.^.^.^.^.^.^.^.^.^.^.^.^.^.^.^.^.^.^.^.^.^.",
"^.^.^.^.^.^.^.^.^.^.^.^.^.^.^.^.^.^.^.^.^.^.^.^.^.^.^.^.^.^.^.^.^.^.^.^.^.^.^.^.^.^.^.^.^.^.^.^.^.^.^.^.^.^.^.^.^.^.^.^.^.^.^.^."
};
