/* XPM */
static char *result[] = {
/* columns rows colors chars-per-pixel */
"64 64 89 1 ",
"  c #093E15",
". c #094316",
"X c #094917",
"o c #0B4D19",
"O c #134E1F",
"+ c #0C531C",
"@ c #0A5E1C",
"# c #11531F",
"$ c #0A621D",
"% c #0C691F",
"& c #144F21",
"* c #0F5520",
"= c #155422",
"- c #195626",
"; c #155C25",
": c #195A27",
"> c #1C5729",
", c #175F28",
"< c #1B5D2A",
"1 c #245F2F",
"2 c #0E6322",
"3 c #0D6A22",
"4 c #146226",
"5 c #196027",
"6 c #116C26",
"7 c #166329",
"8 c #1B622C",
"9 c #146C2A",
"0 c #1B6B2E",
"q c #0B7023",
"w c #16742B",
"e c #19752E",
"r c #16792D",
"t c #187C2F",
"y c #1F6631",
"u c #1E6B31",
"i c #177631",
"p c #1D7532",
"a c #177B32",
"s c #1C7B34",
"d c #1C7E39",
"f c #20642E",
"g c #216731",
"h c #226C33",
"j c #2A6E37",
"k c #266D3C",
"l c #286B3F",
"z c #227536",
"x c #227B35",
"c c #287937",
"v c #25753A",
"b c #2A733B",
"n c #237A3B",
"m c #2B7B3D",
"M c #2F7645",
"N c #277C40",
"B c #2B7B42",
"V c #307F48",
"C c #1D8134",
"Z c #1D843A",
"A c #1E8A3B",
"S c #208237",
"D c #22843A",
"F c #228A3E",
"G c #1E9444",
"H c #2D8541",
"J c #268C42",
"K c #2A8B44",
"L c #2C824A",
"P c #2B8848",
"I c #279145",
"U c #299445",
"Y c #2E944C",
"T c #209848",
"R c #2B9A4B",
"E c #30924B",
"W c #3A984F",
"Q c #2F9754",
"! c #2D9B50",
"~ c #339E53",
"^ c #3C9C54",
"/ c #3A9D58",
"( c #35A356",
") c #3AA154",
"_ c #37A559",
"` c #39A458",
"' c #3CAB5F",
"] c #41A55C",
"[ c None",
/* pixels */
"[[[[[[[[[[[[[[[[[[[[[[[[[[[[[[[[[[[[[[[[[[[[[[[[[[[[[[[[[[[[[[[[",
"[[[[[[[[[[[[[[[[[[[[[[[[[[[[[[[[[[[[[[[[[[[[[[[[[[[[[[[[[[[[[[[[",
"[[[[[[[[[[[[[[[[[[[[[[[[[[[[[[[[[[[[[[[[[[[[[[[[[[[[[[[[[[[[[[[[",
"[[[[[[[[[[[[[[[[[[[[[[[[[[[[[[[[[[[[[[[[[[[[[[[[[[[[[[[[[[[[[[[[",
"[[[[[[[[[[[[[[[[[[[[[[[[[[[[[[[[[[[[[[[[[[[[[[[[[[[[[[[[[[[[[[[[",
"[[[[[[[[[[[[[[[[[[[[[[[[[[[[[[[[[[[[[[[[[[[[[[[[[[[[[[[[[[[[[[[[",
"[[[[[[[[[[[[[[[[[[[[[[[[[[[[[[[[[[[[[[[[[[[[[[[[[[[[[[[[[[[[[[[[",
"[[[[[[[[[[[[[[[[[[[[[[[[[[[[[[[[[[[[[[[[[[[[[[[[[[[[[[[[[[[[[[[[",
"[[[[[[[[[[[[[[[[[[[[[[[[[[[[[[[[[[[[[[[[[[[[[[[[[[[[[[[[[[[[[[[[",
"[[[[[[[[[[[[[[[[[[[[[[[[[[[[[[[[[[[[[[[[[[[[[[[[[[[[[[[[[[[[[[[[",
"[[[[[[[[[[[[[[[[[[[[[[[[[[[[[[[[[[[[[[[[[[[[[[[[[[[[[[[[[[[[[[[[",
"[[[[[[[[[[[[[[[[[[[[[[[[[[[[[[[[[[[[[[[[[[[[[[[[[[[[[[[[[[[[[[[[",
"[[[[[[[[[[[[[[[[[[[[[[[[[[[[[[[[[[[[[[[[[[[[[[[[[[[[[[[[[[[[[[[[",
"[[[[[[[[[[[[[[[[[[[[[[[[[[[[[[[[[[[[[[[[[[[[[[[[[[[[[[[[[[[[[[[[",
"[[[[[[[[[[[[[[[[[[[[[[[[[[[[[[[[[[[[[[[[[[[[[[[[[[[[[[[[[[[[[[[[",
"[[[[[[[[[[[[[[[[[[[[[[[[[[[[[[[[[[[[[[[[[[[[[[[[[[[[[[[[[[[[[[[[",
"[[[[[[[[[[[[[[[[[[[[[[[[[[[[[[[[[[[[[[[[[[[[[[[[[[[[[[[[[[[[[[[[",
"[[[[[[[[[[[[[[[[[[[[[[[[[[[[[[[[[[[[[[[[[[[[[[[[[[[[[[[[[[[[[[[[",
"[[[[[[[[[[[[[[[[[[[[[[[[[[[[[[[[[[[[[[[[[[[[[[[[[[[[[[[[[[[[[[[[",
"W^][[[[[[[[[[[[[[[[[[[[[[[[[[[[[[[[[[[[[[[[[[[[[[[[[[[[[[[[[[[[[",
"eesU~[[[[[[[[[[[[[[[[[[[[[[[[[[[[[[[[[[[[[[[[[[[[[[[[[[[[[[[[[[/",
"BznsAQ[[[[[[[[[[[[[[[[[[[[[[[[[[[[[[[[[[[[[[[[[[[[[[[[[[[[[[[[YD",
"[[[[sJ[[[)_'[[[[[[[[[[[[[[[[[[[[[[[[[[[[[[[[[[[[[[[[[[[[[[[[[[sc",
"0[[[hn[[CttA![[[[[[[[[[[[[[[[[[[[[[[[[[[[[[[[[[[[[[[[[[YFDD[[Lz[",
"50zf8p[[9;;7Z[[[KFAU~[[[~RR[[[[[_(_[[[[[_~([[[[~RUU[[[Pe7<7c[ngj",
"<8,880L[5:=<h[[x0787dY[[s90s[[[ICsdF[[[JduiJ[[Jd00ex[[n51><j[z8<",
"<1<<<8n[8:,>0V[u8<<<8N[p7,58n[PdvvnnD[[p88yp[[e58<80[[h<:>f[[01<",
"f>-1<8umg<<<5v[f<<<<8v[N8588z[nz[[[[z[[0888u[m88<<<8[[011:f[v8<1",
"811>><;4851><4081<<18ypu8<880duyv[[u0dp8<y<ux088<<88z07<<<80481<",
"f>>>>>>-><-<>,:<<<<188:,8<<<7,7y0u8885,8y<885;8<<<185;811f5,:<>1",
"j<<->>><f1--<,f8<1><<8yy<<<<yyy<888<<8<8<<8885<<<<<88<<:,<f1,<<1",
"[g1><<8l[f:>,f[jg<<<<y[[y<:<h[g8<<8<y[k8<<8h[y<<<<<h[881<<[l5<<>",
"[hf<<<8v[f,<<0[[y8<88u[[8<<7h[y8<88<y[ly<<8[[u85<<8h[h5<<g[l7<f<",
"[bf<<<<h[f<<<0[[88<<<8[[u8<8u[k88<<8y[k<8<y[[8588<8[[0588h[h8881",
"[mg<<<8u[h8,<7B[y<8<88[[y5<8z[uy<,88u[h87<8[[y5<<8y[M0588h[u88<8",
"[[h8<<<u[j8<87v[8<<<,8M[y,<8u[uy<8<,0[h,<88[b85<<58[b88<8j[f8518",
"[Hh81<<50p<<<,9z8<<,,<ud7,<,0Bu7<,,,u[0<<,8mh5<,<,8m05<<8bg5<f<1",
"[zf<>>>:=,::-,-;4,-<>,;;,::<;7;,<<,,;5;,,,,4;<:,,<44;5<<55@<<<<<",
"[mh<1--:==----===-----&&--::-=*-->-:===:,--==;-::<==-:::<--<>>>f",
"[[b<>--:;m8---;vy=-->-,d;---,v8----;5u::--5z=----:h8=:-:fh#::-:1",
"[[[,#&&&*A9&&&=Za=o&&&7G7=&=;G9*&&&&iG*=&&9G;=&&O#DtOOOOsd#--O-f",
"[[H+.   .92   .97  .  +d+   +d;    .7i.   ;dX. . .s2.. .04..  .:",
"[[D2++o++4;X.XX24oX...oy+...oy*..X..;,....*7X....Xf+...X4#X.Xoo6",
"[KDwq3%%36w$$$$36*@@$$292@@$2922$*2*66$@@@69$@@@@20$@@@@w%$@@$%e",
"EJDCtrtewww66q63w336333663333666q2336633326633334363%6%69%%666wt",
"[DSxtepeeeeespreeeeirrrisieersstrreiiseeeireweewweweeeewwwhpeeec",
"[[[[[[[[[[[[[[[[[[[[[[[[[[[[[[[[[[[[[[[[[[[[[[[[[[[[[[[[[[[[[[[[",
"[[[[[[[[[[[[[[[[[[[[[[[[[[[[[[[[[[[[[[[[[[[[[[[[[[[[[[[[[[[[[[[[",
"[[[[[[[[[[[[[[[[[[[[[[[[[[[[[[[[[[[[[[[[[[[[[[[[[[[[[[[[[[[[[[[[",
"[[[[[[[[[[[[[[[[[[[[[[[[[[[[[[[[[[[[[[[[[[[[[[[[[[[[[[[[[[[[[[[[",
"[[[[[[[[[[[[[[[[[[[[[[[[[[[[[[[[[[[[[[[[[[[[[[[[[[[[[[[[[[[[[[[[",
"[[[[[[[[[[[[[[[[[[[[[[[[[[[[[[[[[[[[[[[[[[[[[[[[[[[[[[[[[[[[[[[[",
"[[[[[[[[[[[[[[[[[[[[[[[[[[[[[[[[[[[[[[[[[[[[[[[[[[[[[[[[[[[[[[[[",
"[[[[[[[[[[[[[[[[[[[[[[[[[[[[[[[[[[[[[[[[[[[[[[[[[[[[[[[[[[[[[[[[",
"[[[[[[[[[[[[[[[[[[[[[[[[[[[[[[[[[[[[[[[[[[[[[[[[[[[[[[[[[[[[[[[[",
"[[[[[[[[[[[[[[[[[[[[[[[[[[[[[[[[[[[[[[[[[[[[[[[[[[[[[[[[[[[[[[[[",
"[[[[[[[[[[[[[[[[[[[[[[[[[[[[[[[[[[[[[[[[[[[[[[[[[[[[[[[[[[[[[[[[",
"[[[[[[[[[[[[[[[[[[[[[[[[[[[[[[[[[[[[[[[[[[[[[[[[[[[[[[[[[[[[[[[[",
"[[[[[[[[[[[[[[[[[[[[[[[[[[[[[[[[[[[[[[[[[[[[[[[[[[[[[[[[[[[[[[[[",
"[[[[[[[[[[[[[[[[[[[[[[[[[[[[[[[[[[[[[[[[[[[[[[[[[[[[[[[[[[[[[[[[",
"[[[[[[[[[[[[[[[[[[[[[[[[[[[[[[[[[[[[[[[[[[[[[[[[[[[[[[[[[[[[[[[[",
"[[[[[[[[[[[[[[[[[[[[[[[[[[[[[[[[[[[[[[[[[[[[[[[[[[[[[[[[[[[[[[[[",
"[[[[[[[[[[[[[[[[[[[[[[[[[[[[[[[[[[[[[[[[[[[[[[[[[[[[[[[[[[[[[[[[",
"[[[[[[[[[[[[[[[[[[[[[[[[[[[[[[[[[[[[[[[[[[[[[[[[[[[[[[[[[[[[[[[["
};
